<?xml version="1.0" encoding="utf-8"?>
<!-- Uploaded to: SVG Repo, www.svgrepo.com, Generator: SVG Repo Mixer Tools -->
<svg fill="#000000" version="1.1" id="Layer_1" xmlns="http://www.w3.org/2000/svg" xmlns:xlink="http://www.w3.org/1999/xlink" 
	 width="800px" height="800px" viewBox="0 0 256 173" enable-background="new 0 0 256 173" xml:space="preserve">
<path d="M128.253,56.864c15.186,0,27.432-12.247,27.432-27.432S143.536,2,128.253,2
	c-15.186,0-27.432,12.247-27.432,27.432C100.918,44.716,113.165,56.864,128.253,56.864z M64.571,136.32h-49.28
	c-15.969,0-16.851-24.395,0.294-24.395H58.3l24.493-36.054c7.25-9.895,15.48-14.598,27.138-14.598h36.544
	c11.659,0,19.888,4.311,27.138,14.598l24.591,36.054h43.01c17.243,0,16.165,24.395,0.588,24.395h-49.28
	c-3.919,0-8.622-1.372-11.365-5.584l-18.811-26.844l-0.098,67.209H94.844l-0.098-67.209l-18.811,26.844
	C73.192,134.85,68.49,136.32,64.571,136.32z"/>
<path d="M15.763,83.779v4.571c0,2.556-2.064,4.571-4.571,4.571S6.62,90.906,6.62,88.35v-4.571H2V68.836l0,0
	c0-3.293,2.212-5.997,5.21-6.832l5.358-12.731c0.786-1.868,2.605-3.195,4.768-3.195h27.378c2.163,0,3.981,1.327,4.768,3.195
	l5.308,12.731C57.788,62.84,60,65.543,60,68.836l0,0v14.942h-4.669v4.571c0,2.556-2.064,4.571-4.571,4.571
	c-2.556,0-4.571-2.015-4.571-4.571v-4.571H15.763z M11.486,75.57c2.556,0,4.62-2.064,4.62-4.62c0-2.556-2.064-4.62-4.62-4.62
	s-4.62,2.064-4.62,4.62S8.931,75.57,11.486,75.57 M54.839,70.95c0-2.556-2.064-4.62-4.62-4.62c-2.556,0-4.62,2.064-4.62,4.62
	s2.064,4.62,4.62,4.62S54.839,73.506,54.839,70.95 M50.219,61.758l-4.571-11.01c-0.197-0.541-0.737-0.934-1.376-0.934H17.729
	c-0.59,0-1.131,0.393-1.327,0.934l-4.571,11.01H50.219z"/>
<path d="M244.996,84.824c-1.536-1.394-3.332-2.032-5.436-1.962c-0.709,0-1.394,0.165-2.103,0.402l-10.54-9.642
	l6.783-8.012l10.777,9.501L254,64.263l-26.966-23.728l-9.524,10.848l10.493,9.241l-7.019,7.586l-9.595-8.792
	c0.165-0.709,0.236-1.394,0.165-2.103c-0.071-2.103-0.898-3.9-2.434-5.27c-1.536-1.394-3.332-2.032-5.436-1.962
	c-0.709,0-1.465,0.165-2.103,0.402l6.097,5.53l-5.388,5.908l-6.097-5.53c-0.165,0.709-0.236,1.465-0.165,2.103
	c0.071,2.103,0.898,3.805,2.434,5.199c1.536,1.394,3.332,2.032,5.436,1.962c0.709,0,1.536-0.165,2.269-0.496l9.312,8.532
	l-15.409,15.976c-1.064,0.898-1.607,2.174-1.607,3.569c0,2.6,2.103,4.703,4.703,4.703c1.607,0,3.001-0.827,3.9-2.032l14.842-16.354
	l8.768,8.012l1.465,1.394c-0.165,0.709-0.236,1.536-0.236,2.269c0.071,2.103,0.898,3.805,2.434,5.27
	c1.536,1.394,3.332,2.032,5.436,1.962c0.709,0,1.394-0.165,2.103-0.402l-6.097-5.53l5.436-5.932l6.027,5.554
	c0.165-0.709,0.236-1.465,0.165-2.103C247.359,87.896,246.532,86.194,244.996,84.824z"/>
<g id="shopping_cart">
</g>
<g id="cross">
</g>
<g id="leaf">
</g>
</svg>